<mxfile host="Electron" modified="2024-02-12T17:02:16.802Z" agent="Mozilla/5.0 (X11; Linux x86_64) AppleWebKit/537.36 (KHTML, like Gecko) draw.io/23.0.2 Chrome/120.0.6099.109 Electron/28.1.0 Safari/537.36" etag="PdouaWcPJV1M0ebfMmyn" version="23.0.2" type="device">
  <diagram name="Page-1" id="MN6sRI3IgAKL2hco_sIS">
    <mxGraphModel dx="696" dy="776" grid="1" gridSize="10" guides="1" tooltips="1" connect="1" arrows="1" fold="1" page="1" pageScale="1" pageWidth="850" pageHeight="1100" math="0" shadow="0">
      <root>
        <mxCell id="0" />
        <mxCell id="1" parent="0" />
        <mxCell id="EgkwyLPuV9Y7Lhs1xQOW-7" value="100" style="rounded=0;whiteSpace=wrap;html=1;" vertex="1" parent="1">
          <mxGeometry x="160" y="200" width="40" height="20" as="geometry" />
        </mxCell>
        <mxCell id="EgkwyLPuV9Y7Lhs1xQOW-8" value="000" style="rounded=0;whiteSpace=wrap;html=1;" vertex="1" parent="1">
          <mxGeometry x="200" y="200" width="80" height="20" as="geometry" />
        </mxCell>
        <mxCell id="EgkwyLPuV9Y7Lhs1xQOW-9" value="001" style="rounded=0;whiteSpace=wrap;html=1;" vertex="1" parent="1">
          <mxGeometry x="160" y="220" width="40" height="20" as="geometry" />
        </mxCell>
        <mxCell id="EgkwyLPuV9Y7Lhs1xQOW-10" value="001" style="rounded=0;whiteSpace=wrap;html=1;" vertex="1" parent="1">
          <mxGeometry x="200" y="220" width="80" height="20" as="geometry" />
        </mxCell>
        <mxCell id="EgkwyLPuV9Y7Lhs1xQOW-11" value="100" style="rounded=0;whiteSpace=wrap;html=1;" vertex="1" parent="1">
          <mxGeometry x="160" y="240" width="40" height="20" as="geometry" />
        </mxCell>
        <mxCell id="EgkwyLPuV9Y7Lhs1xQOW-12" value="010" style="rounded=0;whiteSpace=wrap;html=1;" vertex="1" parent="1">
          <mxGeometry x="200" y="240" width="80" height="20" as="geometry" />
        </mxCell>
        <mxCell id="EgkwyLPuV9Y7Lhs1xQOW-13" value="111" style="rounded=0;whiteSpace=wrap;html=1;" vertex="1" parent="1">
          <mxGeometry x="160" y="260" width="40" height="20" as="geometry" />
        </mxCell>
        <mxCell id="EgkwyLPuV9Y7Lhs1xQOW-14" value="011" style="rounded=0;whiteSpace=wrap;html=1;" vertex="1" parent="1">
          <mxGeometry x="200" y="260" width="80" height="20" as="geometry" />
        </mxCell>
        <mxCell id="EgkwyLPuV9Y7Lhs1xQOW-15" value="010" style="rounded=0;whiteSpace=wrap;html=1;" vertex="1" parent="1">
          <mxGeometry x="160" y="280" width="40" height="20" as="geometry" />
        </mxCell>
        <mxCell id="EgkwyLPuV9Y7Lhs1xQOW-16" value="100" style="rounded=0;whiteSpace=wrap;html=1;" vertex="1" parent="1">
          <mxGeometry x="200" y="280" width="80" height="20" as="geometry" />
        </mxCell>
        <mxCell id="EgkwyLPuV9Y7Lhs1xQOW-17" value="101" style="rounded=0;whiteSpace=wrap;html=1;" vertex="1" parent="1">
          <mxGeometry x="160" y="300" width="40" height="20" as="geometry" />
        </mxCell>
        <mxCell id="EgkwyLPuV9Y7Lhs1xQOW-18" value="101" style="rounded=0;whiteSpace=wrap;html=1;" vertex="1" parent="1">
          <mxGeometry x="200" y="300" width="80" height="20" as="geometry" />
        </mxCell>
        <mxCell id="EgkwyLPuV9Y7Lhs1xQOW-19" value="001" style="rounded=0;whiteSpace=wrap;html=1;" vertex="1" parent="1">
          <mxGeometry x="160" y="320" width="40" height="20" as="geometry" />
        </mxCell>
        <mxCell id="EgkwyLPuV9Y7Lhs1xQOW-20" value="110" style="rounded=0;whiteSpace=wrap;html=1;" vertex="1" parent="1">
          <mxGeometry x="200" y="320" width="80" height="20" as="geometry" />
        </mxCell>
        <mxCell id="EgkwyLPuV9Y7Lhs1xQOW-21" value="101" style="rounded=0;whiteSpace=wrap;html=1;" vertex="1" parent="1">
          <mxGeometry x="160" y="340" width="40" height="20" as="geometry" />
        </mxCell>
        <mxCell id="EgkwyLPuV9Y7Lhs1xQOW-22" value="111" style="rounded=0;whiteSpace=wrap;html=1;" vertex="1" parent="1">
          <mxGeometry x="200" y="340" width="80" height="20" as="geometry" />
        </mxCell>
        <mxCell id="EgkwyLPuV9Y7Lhs1xQOW-23" value="en" style="text;html=1;strokeColor=none;fillColor=none;align=center;verticalAlign=middle;whiteSpace=wrap;rounded=0;" vertex="1" parent="1">
          <mxGeometry x="110" y="172" width="60" height="30" as="geometry" />
        </mxCell>
        <mxCell id="EgkwyLPuV9Y7Lhs1xQOW-24" value="prio" style="text;html=1;align=center;verticalAlign=middle;resizable=0;points=[];autosize=1;strokeColor=none;fillColor=none;" vertex="1" parent="1">
          <mxGeometry x="160" y="172" width="40" height="30" as="geometry" />
        </mxCell>
        <mxCell id="EgkwyLPuV9Y7Lhs1xQOW-25" value="0" style="rounded=0;whiteSpace=wrap;html=1;" vertex="1" parent="1">
          <mxGeometry x="120" y="200" width="40" height="20" as="geometry" />
        </mxCell>
        <mxCell id="EgkwyLPuV9Y7Lhs1xQOW-26" value="1" style="rounded=0;whiteSpace=wrap;html=1;" vertex="1" parent="1">
          <mxGeometry x="120" y="220" width="40" height="20" as="geometry" />
        </mxCell>
        <mxCell id="EgkwyLPuV9Y7Lhs1xQOW-27" value="1" style="rounded=0;whiteSpace=wrap;html=1;" vertex="1" parent="1">
          <mxGeometry x="120" y="240" width="40" height="20" as="geometry" />
        </mxCell>
        <mxCell id="EgkwyLPuV9Y7Lhs1xQOW-28" value="0" style="rounded=0;whiteSpace=wrap;html=1;" vertex="1" parent="1">
          <mxGeometry x="120" y="260" width="40" height="20" as="geometry" />
        </mxCell>
        <mxCell id="EgkwyLPuV9Y7Lhs1xQOW-29" value="1" style="rounded=0;whiteSpace=wrap;html=1;" vertex="1" parent="1">
          <mxGeometry x="120" y="280" width="40" height="20" as="geometry" />
        </mxCell>
        <mxCell id="EgkwyLPuV9Y7Lhs1xQOW-30" value="1" style="rounded=0;whiteSpace=wrap;html=1;" vertex="1" parent="1">
          <mxGeometry x="120" y="300" width="40" height="20" as="geometry" />
        </mxCell>
        <mxCell id="EgkwyLPuV9Y7Lhs1xQOW-31" value="1" style="rounded=0;whiteSpace=wrap;html=1;" vertex="1" parent="1">
          <mxGeometry x="120" y="320" width="40" height="20" as="geometry" />
        </mxCell>
        <mxCell id="EgkwyLPuV9Y7Lhs1xQOW-32" value="1" style="rounded=0;whiteSpace=wrap;html=1;" vertex="1" parent="1">
          <mxGeometry x="120" y="340" width="40" height="20" as="geometry" />
        </mxCell>
        <mxCell id="EgkwyLPuV9Y7Lhs1xQOW-33" value="" style="rounded=0;whiteSpace=wrap;html=1;" vertex="1" parent="1">
          <mxGeometry x="320" y="200" width="40" height="20" as="geometry" />
        </mxCell>
        <mxCell id="EgkwyLPuV9Y7Lhs1xQOW-34" value="0" style="rounded=0;whiteSpace=wrap;html=1;fillColor=#d5e8d4;strokeColor=#82b366;" vertex="1" parent="1">
          <mxGeometry x="320" y="220" width="40" height="20" as="geometry" />
        </mxCell>
        <mxCell id="EgkwyLPuV9Y7Lhs1xQOW-35" value="1" style="rounded=0;whiteSpace=wrap;html=1;fillColor=#d5e8d4;strokeColor=#82b366;" vertex="1" parent="1">
          <mxGeometry x="320" y="240" width="40" height="20" as="geometry" />
        </mxCell>
        <mxCell id="EgkwyLPuV9Y7Lhs1xQOW-36" value="" style="rounded=0;whiteSpace=wrap;html=1;" vertex="1" parent="1">
          <mxGeometry x="320" y="260" width="40" height="20" as="geometry" />
        </mxCell>
        <mxCell id="EgkwyLPuV9Y7Lhs1xQOW-37" value="0" style="rounded=0;whiteSpace=wrap;html=1;fillColor=#d5e8d4;strokeColor=#82b366;" vertex="1" parent="1">
          <mxGeometry x="320" y="280" width="40" height="20" as="geometry" />
        </mxCell>
        <mxCell id="EgkwyLPuV9Y7Lhs1xQOW-38" value="1" style="rounded=0;whiteSpace=wrap;html=1;fillColor=#d5e8d4;strokeColor=#82b366;" vertex="1" parent="1">
          <mxGeometry x="320" y="300" width="40" height="20" as="geometry" />
        </mxCell>
        <mxCell id="EgkwyLPuV9Y7Lhs1xQOW-39" value="" style="rounded=0;whiteSpace=wrap;html=1;" vertex="1" parent="1">
          <mxGeometry x="320" y="320" width="40" height="20" as="geometry" />
        </mxCell>
        <mxCell id="EgkwyLPuV9Y7Lhs1xQOW-40" value="1" style="rounded=0;whiteSpace=wrap;html=1;fillColor=#d5e8d4;strokeColor=#82b366;" vertex="1" parent="1">
          <mxGeometry x="320" y="340" width="40" height="20" as="geometry" />
        </mxCell>
        <mxCell id="EgkwyLPuV9Y7Lhs1xQOW-41" value="pe" style="text;html=1;strokeColor=none;fillColor=none;align=center;verticalAlign=middle;whiteSpace=wrap;rounded=0;" vertex="1" parent="1">
          <mxGeometry x="70" y="172" width="60" height="30" as="geometry" />
        </mxCell>
        <mxCell id="EgkwyLPuV9Y7Lhs1xQOW-43" value="_1_" style="rounded=0;whiteSpace=wrap;html=1;" vertex="1" parent="1">
          <mxGeometry x="350" y="172" width="40" height="20" as="geometry" />
        </mxCell>
        <mxCell id="EgkwyLPuV9Y7Lhs1xQOW-44" value="1" style="rounded=0;whiteSpace=wrap;html=1;" vertex="1" parent="1">
          <mxGeometry x="80" y="200" width="40" height="20" as="geometry" />
        </mxCell>
        <mxCell id="EgkwyLPuV9Y7Lhs1xQOW-45" value="1" style="rounded=0;whiteSpace=wrap;html=1;" vertex="1" parent="1">
          <mxGeometry x="80" y="220" width="40" height="20" as="geometry" />
        </mxCell>
        <mxCell id="EgkwyLPuV9Y7Lhs1xQOW-46" value="1" style="rounded=0;whiteSpace=wrap;html=1;" vertex="1" parent="1">
          <mxGeometry x="80" y="240" width="40" height="20" as="geometry" />
        </mxCell>
        <mxCell id="EgkwyLPuV9Y7Lhs1xQOW-47" value="0" style="rounded=0;whiteSpace=wrap;html=1;" vertex="1" parent="1">
          <mxGeometry x="80" y="260" width="40" height="20" as="geometry" />
        </mxCell>
        <mxCell id="EgkwyLPuV9Y7Lhs1xQOW-48" value="1" style="rounded=0;whiteSpace=wrap;html=1;" vertex="1" parent="1">
          <mxGeometry x="80" y="280" width="40" height="20" as="geometry" />
        </mxCell>
        <mxCell id="EgkwyLPuV9Y7Lhs1xQOW-49" value="1" style="rounded=0;whiteSpace=wrap;html=1;" vertex="1" parent="1">
          <mxGeometry x="80" y="300" width="40" height="20" as="geometry" />
        </mxCell>
        <mxCell id="EgkwyLPuV9Y7Lhs1xQOW-50" value="0" style="rounded=0;whiteSpace=wrap;html=1;" vertex="1" parent="1">
          <mxGeometry x="80" y="320" width="40" height="20" as="geometry" />
        </mxCell>
        <mxCell id="EgkwyLPuV9Y7Lhs1xQOW-51" value="1" style="rounded=0;whiteSpace=wrap;html=1;" vertex="1" parent="1">
          <mxGeometry x="80" y="340" width="40" height="20" as="geometry" />
        </mxCell>
        <mxCell id="EgkwyLPuV9Y7Lhs1xQOW-52" value="" style="rounded=0;whiteSpace=wrap;html=1;" vertex="1" parent="1">
          <mxGeometry x="380" y="200" width="40" height="20" as="geometry" />
        </mxCell>
        <mxCell id="EgkwyLPuV9Y7Lhs1xQOW-53" value="0!=1" style="rounded=0;whiteSpace=wrap;html=1;fillColor=#f8cecc;strokeColor=#b85450;" vertex="1" parent="1">
          <mxGeometry x="380" y="220" width="40" height="20" as="geometry" />
        </mxCell>
        <mxCell id="EgkwyLPuV9Y7Lhs1xQOW-54" value="0" style="rounded=0;whiteSpace=wrap;html=1;fillColor=#d5e8d4;strokeColor=#82b366;" vertex="1" parent="1">
          <mxGeometry x="380" y="240" width="40" height="20" as="geometry" />
        </mxCell>
        <mxCell id="EgkwyLPuV9Y7Lhs1xQOW-55" value="" style="rounded=0;whiteSpace=wrap;html=1;" vertex="1" parent="1">
          <mxGeometry x="380" y="260" width="40" height="20" as="geometry" />
        </mxCell>
        <mxCell id="EgkwyLPuV9Y7Lhs1xQOW-56" value="0!=1" style="rounded=0;whiteSpace=wrap;html=1;fillColor=#f8cecc;strokeColor=#b85450;" vertex="1" parent="1">
          <mxGeometry x="380" y="280" width="40" height="20" as="geometry" />
        </mxCell>
        <mxCell id="EgkwyLPuV9Y7Lhs1xQOW-57" value="0" style="rounded=0;whiteSpace=wrap;html=1;fillColor=#d5e8d4;strokeColor=#82b366;" vertex="1" parent="1">
          <mxGeometry x="380" y="300" width="40" height="20" as="geometry" />
        </mxCell>
        <mxCell id="EgkwyLPuV9Y7Lhs1xQOW-58" value="" style="rounded=0;whiteSpace=wrap;html=1;" vertex="1" parent="1">
          <mxGeometry x="380" y="320" width="40" height="20" as="geometry" />
        </mxCell>
        <mxCell id="EgkwyLPuV9Y7Lhs1xQOW-59" value="0" style="rounded=0;whiteSpace=wrap;html=1;fillColor=#d5e8d4;strokeColor=#82b366;" vertex="1" parent="1">
          <mxGeometry x="380" y="340" width="40" height="20" as="geometry" />
        </mxCell>
        <mxCell id="EgkwyLPuV9Y7Lhs1xQOW-60" value="" style="rounded=0;whiteSpace=wrap;html=1;" vertex="1" parent="1">
          <mxGeometry x="440" y="200" width="40" height="20" as="geometry" />
        </mxCell>
        <mxCell id="EgkwyLPuV9Y7Lhs1xQOW-61" value="" style="rounded=0;whiteSpace=wrap;html=1;" vertex="1" parent="1">
          <mxGeometry x="440" y="220" width="40" height="20" as="geometry" />
        </mxCell>
        <mxCell id="EgkwyLPuV9Y7Lhs1xQOW-62" value="0" style="rounded=0;whiteSpace=wrap;html=1;fillColor=#d5e8d4;strokeColor=#82b366;" vertex="1" parent="1">
          <mxGeometry x="440" y="240" width="40" height="20" as="geometry" />
        </mxCell>
        <mxCell id="EgkwyLPuV9Y7Lhs1xQOW-63" value="" style="rounded=0;whiteSpace=wrap;html=1;" vertex="1" parent="1">
          <mxGeometry x="440" y="260" width="40" height="20" as="geometry" />
        </mxCell>
        <mxCell id="EgkwyLPuV9Y7Lhs1xQOW-64" value="" style="rounded=0;whiteSpace=wrap;html=1;" vertex="1" parent="1">
          <mxGeometry x="440" y="280" width="40" height="20" as="geometry" />
        </mxCell>
        <mxCell id="EgkwyLPuV9Y7Lhs1xQOW-65" value="1" style="rounded=0;whiteSpace=wrap;html=1;fillColor=#d5e8d4;strokeColor=#82b366;" vertex="1" parent="1">
          <mxGeometry x="440" y="300" width="40" height="20" as="geometry" />
        </mxCell>
        <mxCell id="EgkwyLPuV9Y7Lhs1xQOW-66" value="" style="rounded=0;whiteSpace=wrap;html=1;" vertex="1" parent="1">
          <mxGeometry x="440" y="320" width="40" height="20" as="geometry" />
        </mxCell>
        <mxCell id="EgkwyLPuV9Y7Lhs1xQOW-67" value="1" style="rounded=0;whiteSpace=wrap;html=1;fillColor=#d5e8d4;strokeColor=#82b366;" vertex="1" parent="1">
          <mxGeometry x="440" y="340" width="40" height="20" as="geometry" />
        </mxCell>
        <mxCell id="EgkwyLPuV9Y7Lhs1xQOW-68" value="" style="rounded=0;whiteSpace=wrap;html=1;" vertex="1" parent="1">
          <mxGeometry x="500" y="200" width="40" height="20" as="geometry" />
        </mxCell>
        <mxCell id="EgkwyLPuV9Y7Lhs1xQOW-69" value="" style="rounded=0;whiteSpace=wrap;html=1;" vertex="1" parent="1">
          <mxGeometry x="500" y="220" width="40" height="20" as="geometry" />
        </mxCell>
        <mxCell id="EgkwyLPuV9Y7Lhs1xQOW-70" value="0!=1" style="rounded=0;whiteSpace=wrap;html=1;fillColor=#f8cecc;strokeColor=#b85450;" vertex="1" parent="1">
          <mxGeometry x="500" y="240" width="40" height="20" as="geometry" />
        </mxCell>
        <mxCell id="EgkwyLPuV9Y7Lhs1xQOW-71" value="" style="rounded=0;whiteSpace=wrap;html=1;" vertex="1" parent="1">
          <mxGeometry x="500" y="260" width="40" height="20" as="geometry" />
        </mxCell>
        <mxCell id="EgkwyLPuV9Y7Lhs1xQOW-72" value="" style="rounded=0;whiteSpace=wrap;html=1;" vertex="1" parent="1">
          <mxGeometry x="500" y="280" width="40" height="20" as="geometry" />
        </mxCell>
        <mxCell id="EgkwyLPuV9Y7Lhs1xQOW-73" value="1" style="rounded=0;whiteSpace=wrap;html=1;fillColor=#d5e8d4;strokeColor=#82b366;" vertex="1" parent="1">
          <mxGeometry x="500" y="300" width="40" height="20" as="geometry" />
        </mxCell>
        <mxCell id="EgkwyLPuV9Y7Lhs1xQOW-74" value="" style="rounded=0;whiteSpace=wrap;html=1;" vertex="1" parent="1">
          <mxGeometry x="500" y="320" width="40" height="20" as="geometry" />
        </mxCell>
        <mxCell id="EgkwyLPuV9Y7Lhs1xQOW-75" value="1" style="rounded=0;whiteSpace=wrap;html=1;fillColor=#d5e8d4;strokeColor=#82b366;" vertex="1" parent="1">
          <mxGeometry x="500" y="340" width="40" height="20" as="geometry" />
        </mxCell>
        <mxCell id="EgkwyLPuV9Y7Lhs1xQOW-76" value="" style="rounded=0;whiteSpace=wrap;html=1;" vertex="1" parent="1">
          <mxGeometry x="560" y="200" width="40" height="20" as="geometry" />
        </mxCell>
        <mxCell id="EgkwyLPuV9Y7Lhs1xQOW-77" value="" style="rounded=0;whiteSpace=wrap;html=1;" vertex="1" parent="1">
          <mxGeometry x="560" y="220" width="40" height="20" as="geometry" />
        </mxCell>
        <mxCell id="EgkwyLPuV9Y7Lhs1xQOW-78" value="" style="rounded=0;whiteSpace=wrap;html=1;" vertex="1" parent="1">
          <mxGeometry x="560" y="240" width="40" height="20" as="geometry" />
        </mxCell>
        <mxCell id="EgkwyLPuV9Y7Lhs1xQOW-79" value="" style="rounded=0;whiteSpace=wrap;html=1;" vertex="1" parent="1">
          <mxGeometry x="560" y="260" width="40" height="20" as="geometry" />
        </mxCell>
        <mxCell id="EgkwyLPuV9Y7Lhs1xQOW-80" value="" style="rounded=0;whiteSpace=wrap;html=1;" vertex="1" parent="1">
          <mxGeometry x="560" y="280" width="40" height="20" as="geometry" />
        </mxCell>
        <mxCell id="EgkwyLPuV9Y7Lhs1xQOW-81" value="0" style="rounded=0;whiteSpace=wrap;html=1;fillColor=#d5e8d4;strokeColor=#82b366;" vertex="1" parent="1">
          <mxGeometry x="560" y="300" width="40" height="20" as="geometry" />
        </mxCell>
        <mxCell id="EgkwyLPuV9Y7Lhs1xQOW-82" value="" style="rounded=0;whiteSpace=wrap;html=1;" vertex="1" parent="1">
          <mxGeometry x="560" y="320" width="40" height="20" as="geometry" />
        </mxCell>
        <mxCell id="EgkwyLPuV9Y7Lhs1xQOW-83" value="1" style="rounded=0;whiteSpace=wrap;html=1;fillColor=#d5e8d4;strokeColor=#82b366;" vertex="1" parent="1">
          <mxGeometry x="560" y="340" width="40" height="20" as="geometry" />
        </mxCell>
        <mxCell id="EgkwyLPuV9Y7Lhs1xQOW-84" value="" style="rounded=0;whiteSpace=wrap;html=1;" vertex="1" parent="1">
          <mxGeometry x="620" y="200" width="40" height="20" as="geometry" />
        </mxCell>
        <mxCell id="EgkwyLPuV9Y7Lhs1xQOW-85" value="" style="rounded=0;whiteSpace=wrap;html=1;" vertex="1" parent="1">
          <mxGeometry x="620" y="220" width="40" height="20" as="geometry" />
        </mxCell>
        <mxCell id="EgkwyLPuV9Y7Lhs1xQOW-86" value="" style="rounded=0;whiteSpace=wrap;html=1;" vertex="1" parent="1">
          <mxGeometry x="620" y="240" width="40" height="20" as="geometry" />
        </mxCell>
        <mxCell id="EgkwyLPuV9Y7Lhs1xQOW-87" value="" style="rounded=0;whiteSpace=wrap;html=1;" vertex="1" parent="1">
          <mxGeometry x="620" y="260" width="40" height="20" as="geometry" />
        </mxCell>
        <mxCell id="EgkwyLPuV9Y7Lhs1xQOW-88" value="" style="rounded=0;whiteSpace=wrap;html=1;" vertex="1" parent="1">
          <mxGeometry x="620" y="280" width="40" height="20" as="geometry" />
        </mxCell>
        <mxCell id="EgkwyLPuV9Y7Lhs1xQOW-89" value="0!=1" style="rounded=0;whiteSpace=wrap;html=1;fillColor=#f8cecc;strokeColor=#b85450;" vertex="1" parent="1">
          <mxGeometry x="620" y="300" width="40" height="20" as="geometry" />
        </mxCell>
        <mxCell id="EgkwyLPuV9Y7Lhs1xQOW-90" value="" style="rounded=0;whiteSpace=wrap;html=1;" vertex="1" parent="1">
          <mxGeometry x="620" y="320" width="40" height="20" as="geometry" />
        </mxCell>
        <mxCell id="EgkwyLPuV9Y7Lhs1xQOW-91" value="1" style="rounded=0;whiteSpace=wrap;html=1;fillColor=#d5e8d4;strokeColor=#82b366;" vertex="1" parent="1">
          <mxGeometry x="620" y="340" width="40" height="20" as="geometry" />
        </mxCell>
        <mxCell id="EgkwyLPuV9Y7Lhs1xQOW-108" value="pe&amp;amp;en" style="text;html=1;strokeColor=none;fillColor=none;align=center;verticalAlign=middle;whiteSpace=wrap;rounded=0;" vertex="1" parent="1">
          <mxGeometry x="300" y="170" width="60" height="30" as="geometry" />
        </mxCell>
        <mxCell id="EgkwyLPuV9Y7Lhs1xQOW-109" value="_1_" style="rounded=0;whiteSpace=wrap;html=1;" vertex="1" parent="1">
          <mxGeometry x="350" y="172" width="40" height="20" as="geometry" />
        </mxCell>
        <mxCell id="EgkwyLPuV9Y7Lhs1xQOW-110" value="_1_" style="rounded=0;whiteSpace=wrap;html=1;" vertex="1" parent="1">
          <mxGeometry x="650" y="172" width="40" height="20" as="geometry" />
        </mxCell>
        <mxCell id="EgkwyLPuV9Y7Lhs1xQOW-111" value="_0_" style="rounded=0;whiteSpace=wrap;html=1;" vertex="1" parent="1">
          <mxGeometry x="410" y="172" width="40" height="20" as="geometry" />
        </mxCell>
        <mxCell id="EgkwyLPuV9Y7Lhs1xQOW-112" value="_1_" style="rounded=0;whiteSpace=wrap;html=1;" vertex="1" parent="1">
          <mxGeometry x="470" y="172" width="40" height="20" as="geometry" />
        </mxCell>
        <mxCell id="EgkwyLPuV9Y7Lhs1xQOW-113" value="_1_" style="rounded=0;whiteSpace=wrap;html=1;" vertex="1" parent="1">
          <mxGeometry x="530" y="172" width="40" height="20" as="geometry" />
        </mxCell>
        <mxCell id="EgkwyLPuV9Y7Lhs1xQOW-114" value="_1_" style="rounded=0;whiteSpace=wrap;html=1;" vertex="1" parent="1">
          <mxGeometry x="590" y="172" width="40" height="20" as="geometry" />
        </mxCell>
        <mxCell id="EgkwyLPuV9Y7Lhs1xQOW-115" value="" style="rounded=0;whiteSpace=wrap;html=1;" vertex="1" parent="1">
          <mxGeometry x="680" y="200" width="40" height="20" as="geometry" />
        </mxCell>
        <mxCell id="EgkwyLPuV9Y7Lhs1xQOW-116" value="" style="rounded=0;whiteSpace=wrap;html=1;" vertex="1" parent="1">
          <mxGeometry x="680" y="220" width="40" height="20" as="geometry" />
        </mxCell>
        <mxCell id="EgkwyLPuV9Y7Lhs1xQOW-117" value="" style="rounded=0;whiteSpace=wrap;html=1;" vertex="1" parent="1">
          <mxGeometry x="680" y="240" width="40" height="20" as="geometry" />
        </mxCell>
        <mxCell id="EgkwyLPuV9Y7Lhs1xQOW-118" value="" style="rounded=0;whiteSpace=wrap;html=1;" vertex="1" parent="1">
          <mxGeometry x="680" y="260" width="40" height="20" as="geometry" />
        </mxCell>
        <mxCell id="EgkwyLPuV9Y7Lhs1xQOW-119" value="" style="rounded=0;whiteSpace=wrap;html=1;" vertex="1" parent="1">
          <mxGeometry x="680" y="280" width="40" height="20" as="geometry" />
        </mxCell>
        <mxCell id="EgkwyLPuV9Y7Lhs1xQOW-120" value="" style="rounded=0;whiteSpace=wrap;html=1;" vertex="1" parent="1">
          <mxGeometry x="680" y="300" width="40" height="20" as="geometry" />
        </mxCell>
        <mxCell id="EgkwyLPuV9Y7Lhs1xQOW-121" value="" style="rounded=0;whiteSpace=wrap;html=1;" vertex="1" parent="1">
          <mxGeometry x="680" y="320" width="40" height="20" as="geometry" />
        </mxCell>
        <mxCell id="EgkwyLPuV9Y7Lhs1xQOW-122" value="1" style="rounded=0;whiteSpace=wrap;html=1;fillColor=#d5e8d4;strokeColor=#82b366;" vertex="1" parent="1">
          <mxGeometry x="680" y="340" width="40" height="20" as="geometry" />
        </mxCell>
      </root>
    </mxGraphModel>
  </diagram>
</mxfile>
